name C:\Users\u0101727\Documents\MyRepositories\upper-imu-dc\Results\main_tracking\Case_48\ABD01_linearAccelerations_bodyFrame.mot
datacolumns 4
datarows 129
range 6.31000000 7.59000000
endheader 
time	radius_imu_x	radius_imu_y	radius_imu_z	
          6.31000000	          0.01835181	         -8.42968234	          4.67878587	
          6.32000000	         -0.04256892	         -8.45760814	          4.63065168	
          6.33000000	         -0.10954856	         -8.48614866	          4.57893528	
          6.34000000	         -0.18208256	         -8.51529494	          4.52358705	
          6.35000000	         -0.25954952	         -8.54498909	          4.46457238	
          6.36000000	         -0.34116274	         -8.57512235	          4.40190833	
          6.37000000	         -0.42593870	         -8.60553535	          4.33574626	
          6.38000000	         -0.51266856	         -8.63603108	          4.26650870	
          6.39000000	         -0.59990053	         -8.66640633	          4.19501136	
          6.40000000	         -0.68596342	         -8.69649233	          4.12247999	
          6.41000000	         -0.76908526	         -8.72618627	          4.05037444	
          6.42000000	         -0.84759788	         -8.75545400	          3.98003546	
          6.43000000	         -0.92014497	         -8.78430032	          3.91235077	
          6.44000000	         -0.98577302	         -8.81272638	          3.84766931	
          6.45000000	         -1.04386985	         -8.84069877	          3.78594920	
          6.46000000	         -1.09401658	         -8.86814802	          3.72696906	
          6.47000000	         -1.13582291	         -8.89498100	          3.67052037	
          6.48000000	         -1.16878939	         -8.92109446	          3.61657349	
          6.49000000	         -1.19236365	         -8.94636324	          3.56552081	
          6.50000000	         -1.20575408	         -8.97068172	          3.51770432	
          6.51000000	         -1.20843783	         -8.99395811	          3.47364856	
          6.52000000	         -1.20020490	         -9.01612450	          3.43369361	
          6.53000000	         -1.18126204	         -9.03712554	          3.39788651	
          6.54000000	         -1.15224269	         -9.05690191	          3.36593279	
          6.55000000	         -1.11413210	         -9.07538241	          3.33717800	
          6.56000000	         -1.06814988	         -9.09249036	          3.31065246	
          6.57000000	         -1.01562872	         -9.10816635	          3.28518070	
          6.58000000	         -0.95792069	         -9.12239712	          3.25951466	
          6.59000000	         -0.89636204	         -9.13523576	          3.23246511	
          6.60000000	         -0.83230648	         -9.14680143	          3.20303070	
          6.61000000	         -0.76718258	         -9.15725862	          3.17050629	
          6.62000000	         -0.70252429	         -9.16678670	          3.13453892	
          6.63000000	         -0.63995335	         -9.17555585	          3.09510469	
          6.64000000	         -0.58113192	         -9.18371748	          3.05243545	
          6.65000000	         -0.52769481	         -9.19140725	          3.00694060	
          6.66000000	         -0.48117091	         -9.19875184	          2.95914104	
          6.67000000	         -0.44290395	         -9.20587094	          2.90961378	
          6.68000000	         -0.41397511	         -9.21287678	          2.85894978	
          6.69000000	         -0.39513081	         -9.21987964	          2.80772689	
          6.70000000	         -0.38672853	         -9.22700467	          2.75649805	
          6.71000000	         -0.38869880	         -9.23441638	          2.70578697	
          6.72000000	         -0.40054707	         -9.24233697	          2.65604784	
          6.73000000	         -0.42140752	         -9.25103865	          2.60756958	
          6.74000000	         -0.45013275	         -9.26080230	          2.56038646	
          6.75000000	         -0.48537055	         -9.27186061	          2.51428938	
          6.76000000	         -0.52560203	         -9.28435424	          2.46894824	
          6.77000000	         -0.56916650	         -9.29831578	          2.42406404	
          6.78000000	         -0.61431164	         -9.31367585	          2.37947684	
          6.79000000	         -0.65928083	         -9.33027476	          2.33522259	
          6.80000000	         -0.70243377	         -9.34786703	          2.29155626	
          6.81000000	         -0.74239603	         -9.36612617	          2.24893587	
          6.82000000	         -0.77821012	         -9.38466804	          2.20795133	
          6.83000000	         -0.80944552	         -9.40309661	          2.16919269	
          6.84000000	         -0.83623097	         -9.42105145	          2.13309014	
          6.85000000	         -0.85918560	         -9.43823269	          2.09979356	
          6.86000000	         -0.87925011	         -9.45440380	          2.06913753	
          6.87000000	         -0.89746182	         -9.46939314	          2.04069776	
          6.88000000	         -0.91472551	         -9.48310453	          2.01391648	
          6.89000000	         -0.93163893	         -9.49552199	          1.98828001	
          6.90000000	         -0.94842245	         -9.50669317	          1.96346060	
          6.91000000	         -0.96497832	         -9.51669564	          1.93935231	
          6.92000000	         -0.98100756	         -9.52561288	          1.91604078	
          6.93000000	         -0.99610327	         -9.53354346	          1.89377069	
          6.94000000	         -1.00982395	         -9.54063063	          1.87289094	
          6.95000000	         -1.02179631	         -9.54707543	          1.85372699	
          6.96000000	         -1.03186507	         -9.55311039	          1.83638328	
          6.97000000	         -1.04024595	         -9.55894181	          1.82056052	
          6.98000000	         -1.04761111	         -9.56469249	          1.80549408	
          6.99000000	         -1.05509872	         -9.57037276	          1.79000627	
          7.00000000	         -1.06427429	         -9.57588658	          1.77258035	
          7.01000000	         -1.07701028	         -9.58107033	          1.75143306	
          7.02000000	         -1.09524691	         -9.58576121	          1.72462727	
          7.03000000	         -1.12066099	         -9.58987538	          1.69027219	
          7.04000000	         -1.15433518	         -9.59345464	          1.64682642	
          7.05000000	         -1.19656281	         -9.59664739	          1.59339846	
          7.06000000	         -1.24685818	         -9.59963037	          1.52991528	
          7.07000000	         -1.30409241	         -9.60250794	          1.45716928	
          7.08000000	         -1.36665521	         -9.60523166	          1.37679746	
          7.09000000	         -1.43261667	         -9.60757163	          1.29117922	
          7.10000000	         -1.49988020	         -9.60913973	          1.20324755	
          7.11000000	         -1.56630978	         -9.60943701	          1.11624804	
          7.12000000	         -1.62981882	         -9.60790223	          1.03347895	
          7.13000000	         -1.68840300	         -9.60395761	          0.95803925	
          7.14000000	         -1.74011421	         -9.59705661	          0.89260260	
          7.15000000	         -1.78301957	         -9.58672995	          0.83922773	
          7.16000000	         -1.81520861	         -9.57261523	          0.79924419	
          7.17000000	         -1.83486587	         -9.55446170	          0.77329066	
          7.18000000	         -1.84037539	         -9.53211971	          0.76153762	
          7.19000000	         -1.83043450	         -9.50552827	          0.76397726	
          7.20000000	         -1.80417328	         -9.47470091	          0.78058668	
          7.21000000	         -1.76123675	         -9.43970455	          0.81130465	
          7.22000000	         -1.70176573	         -9.40062569	          0.85594934	
          7.23000000	         -1.62629125	         -9.35753455	          0.91419008	
          7.24000000	         -1.53562580	         -9.31046987	          0.98556306	
          7.25000000	         -1.43081305	         -9.25945493	          1.06950143	
          7.26000000	         -1.31313300	         -9.20453252	          1.16540677	
          7.27000000	         -1.18412048	         -9.14579651	          1.27279568	
          7.28000000	         -1.04555717	         -9.08340247	          1.39147854	
          7.29000000	         -0.89942587	         -9.01755682	          1.52164303	
          7.30000000	         -0.74783124	         -8.94850247	          1.66374540	
          7.31000000	         -0.59289312	         -8.87652440	          1.81824662	
          7.32000000	         -0.43662711	         -8.80197900	          1.98531802	
          7.33000000	         -0.28084863	         -8.72532675	          2.16463475	
          7.34000000	         -0.12710491	         -8.64713947	          2.35533387	
          7.35000000	          0.02334629	         -8.56807241	          2.55609332	
          7.36000000	          0.16949536	         -8.48881480	          2.76521954	
          7.37000000	          0.31047820	         -8.41003993	          2.98067662	
          7.38000000	          0.44544219	         -8.33237359	          3.20003275	
          7.39000000	          0.57341951	         -8.25638496	          3.42037787	
          7.40000000	          0.69324401	         -8.18257880	          3.63837122	
          7.41000000	          0.80354162	         -8.11136384	          3.85055753	
          7.42000000	          0.90280362	         -8.04300733	          4.05378727	
          7.43000000	          0.98952298	         -7.97760407	          4.24552034	
          7.44000000	          1.06236965	         -7.91507680	          4.42397497	
          7.45000000	          1.12038302	         -7.85520590	          4.58819815	
          7.46000000	          1.16314517	         -7.79767093	          4.73808321	
          7.47000000	          1.19091333	         -7.74208471	          4.87429246	
          7.48000000	          1.20470149	         -7.68801564	          4.99807475	
          7.49000000	          1.20631635	         -7.63501348	          5.11101820	
          7.50000000	          1.19823624	         -7.58264350	          5.21480372	
          7.51000000	          1.18332163	         -7.53051228	          5.31106466	
          7.52000000	          1.16446955	         -7.47826013	          5.40140116	
          7.53000000	          1.14435053	         -7.42553169	          5.48743328	
          7.54000000	          1.12522590	         -7.37195765	          5.57073524	
          7.55000000	          1.10879072	         -7.31716570	          5.65261913	
          7.56000000	          1.09607373	         -7.26081421	          5.73388826	
          7.57000000	          1.08745744	         -7.20262488	          5.81473548	
          7.58000000	          1.08282670	         -7.14239811	          5.89485834	
          7.59000000	          1.08179851	         -7.08000966	          5.97367845	
